<svg width="16" height="16" viewBox="0 0 16 16" fill="none" xmlns="http://www.w3.org/2000/svg">
<path d="M14 6.05008V12.0001C14 12.2653 13.8946 12.5197 13.7071 12.7072C13.5196 12.8947 13.2652 13.0001 13 13.0001H3.05C2.91453 13.0069 2.7791 12.986 2.65195 12.9388C2.52479 12.8916 2.40857 12.819 2.31034 12.7255C2.21212 12.6319 2.13396 12.5194 2.08061 12.3947C2.02726 12.27 1.99983 12.1357 2 12.0001V4.05008C2 3.78487 2.10536 3.53051 2.29289 3.34298C2.48043 3.15544 2.73478 3.05008 3 3.05008H6.3C6.49633 3.04375 6.69017 3.09538 6.85734 3.19853C7.02451 3.30168 7.1576 3.45177 7.24 3.63008L7.66 4.47008C7.753 4.64738 7.89708 4.79267 8.07358 4.88717C8.25009 4.98166 8.45089 5.02099 8.65 5.00008H13C13.1356 4.99991 13.2699 5.02734 13.3946 5.08069C13.5193 5.13404 13.6318 5.21221 13.7254 5.31043C13.8189 5.40865 13.8915 5.52487 13.9387 5.65203C13.9859 5.77918 14.0068 5.91462 14 6.05008Z" fill="#5EA3EF"/>
</svg>
