<svg width="16" height="16" viewBox="0 0 16 16" fill="none" xmlns="http://www.w3.org/2000/svg">
<path d="M13.2509 6.01258L13.25 6.03132V6.05008V12.0001C13.25 12.0664 13.2237 12.13 13.1768 12.1769C13.1299 12.2238 13.0663 12.2501 13 12.2501H3.05H3.03124L3.0125 12.251C2.97863 12.2527 2.94478 12.2475 2.91299 12.2357C2.8812 12.2239 2.85214 12.2058 2.82759 12.1824C2.80303 12.159 2.78349 12.1309 2.77015 12.0997C2.75681 12.0685 2.74996 12.035 2.75 12.001V4.05008C2.75 3.98378 2.77634 3.92019 2.82322 3.87331C2.87011 3.82642 2.9337 3.80008 3 3.80008H6.3H6.31209L6.32418 3.79969C6.37326 3.79811 6.42172 3.81102 6.46351 3.83681C6.50531 3.86259 6.53858 3.90012 6.55918 3.94469L6.56402 3.95517L6.56918 3.96549L6.98918 4.80549L6.99244 4.81202L6.99583 4.81848C7.15859 5.12875 7.41072 5.38301 7.7196 5.54838C8.01533 5.70669 8.35004 5.77654 8.6838 5.75008H13C13.0339 5.75004 13.0684 5.7569 13.0996 5.77024C13.1308 5.78357 13.1589 5.80311 13.1823 5.82767C13.2057 5.85222 13.2238 5.88128 13.2356 5.91307C13.2474 5.94486 13.2526 5.97872 13.2509 6.01258Z" stroke="#36645F" stroke-width="1.5"/>
</svg>
